<mxfile host="app.diagrams.net" agent="Mozilla/5.0 (Windows NT 10.0; Win64; x64) AppleWebKit/537.36 (KHTML, like Gecko) Chrome/131.0.0.0 Safari/537.36 Edg/131.0.0.0" version="25.0.3">
  <diagram name="Page-1" id="12e1b939-464a-85fe-373e-61e167be1490">
    <mxGraphModel dx="1917" dy="1151" grid="1" gridSize="10" guides="1" tooltips="1" connect="1" arrows="1" fold="1" page="1" pageScale="1.5" pageWidth="1169" pageHeight="826" background="none" math="0" shadow="0">
      <root>
        <mxCell id="0" />
        <mxCell id="1" parent="0" />
        <mxCell id="Szay9QpZ8a9f87Acph22-7" value="" style="rounded=1;whiteSpace=wrap;html=1;fillColor=#dae8fc;strokeColor=#6c8ebf;strokeWidth=3;" vertex="1" parent="1">
          <mxGeometry x="370" y="70" width="450" height="60" as="geometry" />
        </mxCell>
        <mxCell id="60da8b9f42644d3a-3" value="Veri Seti Oluşturma" style="text;html=1;strokeColor=none;fillColor=none;align=center;verticalAlign=middle;whiteSpace=wrap;rounded=0;shadow=0;fontSize=27;fontColor=#000000;fontStyle=1" parent="1" vertex="1">
          <mxGeometry x="450" y="70" width="280" height="60" as="geometry" />
        </mxCell>
        <mxCell id="Szay9QpZ8a9f87Acph22-10" value="" style="rounded=1;whiteSpace=wrap;html=1;fillColor=#FFFFFF;strokeColor=#6c8ebf;strokeWidth=2;dashed=1;" vertex="1" parent="1">
          <mxGeometry x="374" y="160" width="134" height="80" as="geometry" />
        </mxCell>
        <mxCell id="60da8b9f42644d3a-4" value="Verilerin&lt;div&gt;Toplanması&lt;/div&gt;" style="text;html=1;align=center;verticalAlign=middle;whiteSpace=wrap;rounded=0;shadow=0;fontSize=14;" parent="1" vertex="1">
          <mxGeometry x="378" y="150" width="130" height="90" as="geometry" />
        </mxCell>
        <mxCell id="Szay9QpZ8a9f87Acph22-11" value="" style="rounded=1;whiteSpace=wrap;html=1;fillColor=#FFFFFF;strokeColor=#6c8ebf;strokeWidth=2;dashed=1;" vertex="1" parent="1">
          <mxGeometry x="529.5" y="160" width="134" height="80" as="geometry" />
        </mxCell>
        <mxCell id="Szay9QpZ8a9f87Acph22-12" value="" style="rounded=1;whiteSpace=wrap;html=1;fillColor=#FFFFFF;strokeColor=#6c8ebf;strokeWidth=2;dashed=1;" vertex="1" parent="1">
          <mxGeometry x="680" y="160" width="134" height="80" as="geometry" />
        </mxCell>
        <mxCell id="Szay9QpZ8a9f87Acph22-13" value="Verilerin&lt;div&gt;Hazırlanması&lt;/div&gt;" style="text;html=1;align=center;verticalAlign=middle;whiteSpace=wrap;rounded=0;shadow=0;fontSize=14;" vertex="1" parent="1">
          <mxGeometry x="539" y="155" width="120" height="90" as="geometry" />
        </mxCell>
        <mxCell id="Szay9QpZ8a9f87Acph22-14" value="Stereo Görüntünün&lt;div&gt;Elde Edilmesi&lt;/div&gt;" style="text;html=1;align=center;verticalAlign=middle;whiteSpace=wrap;rounded=0;shadow=0;fontSize=14;" vertex="1" parent="1">
          <mxGeometry x="663.5" y="150" width="170" height="100" as="geometry" />
        </mxCell>
        <mxCell id="Szay9QpZ8a9f87Acph22-15" value="" style="rounded=1;whiteSpace=wrap;html=1;fillColor=#dae8fc;strokeColor=#6c8ebf;strokeWidth=3;" vertex="1" parent="1">
          <mxGeometry x="843" y="70" width="450" height="60" as="geometry" />
        </mxCell>
        <mxCell id="Szay9QpZ8a9f87Acph22-16" value="Derin Öğrenme" style="text;html=1;strokeColor=none;fillColor=none;align=center;verticalAlign=middle;whiteSpace=wrap;rounded=0;shadow=0;fontSize=27;fontColor=#000000;fontStyle=1" vertex="1" parent="1">
          <mxGeometry x="923" y="70" width="280" height="60" as="geometry" />
        </mxCell>
        <mxCell id="Szay9QpZ8a9f87Acph22-17" value="" style="rounded=1;whiteSpace=wrap;html=1;fillColor=#FFFFFF;strokeColor=#6c8ebf;strokeWidth=2;dashed=1;" vertex="1" parent="1">
          <mxGeometry x="847" y="160" width="134" height="80" as="geometry" />
        </mxCell>
        <mxCell id="Szay9QpZ8a9f87Acph22-18" value="Derin Öğrenme&lt;div&gt;Modelinin&lt;/div&gt;&lt;div&gt;Oluşturulması&lt;/div&gt;" style="text;html=1;align=center;verticalAlign=middle;whiteSpace=wrap;rounded=0;shadow=0;fontSize=14;" vertex="1" parent="1">
          <mxGeometry x="851" y="150" width="130" height="90" as="geometry" />
        </mxCell>
        <mxCell id="Szay9QpZ8a9f87Acph22-19" value="" style="rounded=1;whiteSpace=wrap;html=1;fillColor=#FFFFFF;strokeColor=#6c8ebf;strokeWidth=2;dashed=1;" vertex="1" parent="1">
          <mxGeometry x="1002.5" y="160" width="134" height="80" as="geometry" />
        </mxCell>
        <mxCell id="Szay9QpZ8a9f87Acph22-20" value="" style="rounded=1;whiteSpace=wrap;html=1;fillColor=#FFFFFF;strokeColor=#6c8ebf;strokeWidth=2;dashed=1;" vertex="1" parent="1">
          <mxGeometry x="1153" y="160" width="134" height="80" as="geometry" />
        </mxCell>
        <mxCell id="Szay9QpZ8a9f87Acph22-21" value="Derinlik Haritaları&lt;div&gt;ve 3 Boyutlu&lt;/div&gt;&lt;div&gt;Görüntü Oluşturma&lt;/div&gt;" style="text;html=1;align=center;verticalAlign=middle;whiteSpace=wrap;rounded=0;shadow=0;fontSize=14;" vertex="1" parent="1">
          <mxGeometry x="1012" y="155" width="120" height="90" as="geometry" />
        </mxCell>
        <mxCell id="Szay9QpZ8a9f87Acph22-22" value="Nesne Tanıma ve&lt;div&gt;Hedef Takibi&lt;/div&gt;" style="text;html=1;align=center;verticalAlign=middle;whiteSpace=wrap;rounded=0;shadow=0;fontSize=14;" vertex="1" parent="1">
          <mxGeometry x="1136.5" y="150" width="170" height="100" as="geometry" />
        </mxCell>
      </root>
    </mxGraphModel>
  </diagram>
</mxfile>
